<svg height="512" viewBox="0 0 60 60" width="512" xmlns="http://www.w3.org/2000/svg"><g  id="Page-1" fill="purple"
><g id="009---Cat"  transform="translate(-1)"><path id="Shape" d="m52 0c-3 0-6.635 6.387-8.64 12.409-4.0477603-.9683434-8.1981497-1.4414744-12.36-1.409-4.1618503-.0324744-8.3122397.4406566-12.36 1.409-2.005-6.022-5.64-12.409-8.64-12.409-5.583 0-9 23.956-9 37-.10525828 4.7710556 1.43660856 9.4326778 4.366 13.2l-3.814 1.906c-.49374257.2485281-.69252814.8502574-.444 1.344s.85025743.6925281 1.344.444l4.285-2.147c.435.447.887.881 1.369 1.294l-2.938 4.405c-.21069176.2971443-.2431442.6853494-.0847122 1.013351.15843199.3280015.4826847.5439102.84641285.563597s.70939044-.1599627.90229935-.468948l2.852-4.282c5.157 3.688 12.424 5.728 21.316 5.728s16.159-2.04 21.316-5.728l2.852 4.282c.1929089.3089853.5385712.4886348.9022993.468948.3637282-.0196868.6879809-.2355955.8464129-.563597.158432-.3280016.1259796-.7162067-.0847122-1.013351l-2.932-4.405c.482-.413.934-.847 1.369-1.294l4.285 2.147c.4937426.2485281 1.0954719.0497426 1.344-.444s.0497426-1.0954719-.444-1.344l-3.82-1.906c2.9293914-3.7673222 4.4712583-8.4289444 4.366-13.2 0-13.044-3.417-37-9-37zm-21 58c-13.536 0-28-5.517-28-21 0-17.009 4.552-35 7-35 1.934 0 6.949 8.713 8.01 16.142.0784245.5467619.5852381.9264244 1.132.848.5467619-.0784245.9264244-.5852381.848-1.132-.179962-1.1933301-.4354755-2.3740364-.765-3.535 3.8579979-.9101363 7.8112246-1.3543077 11.775-1.323 3.9637754-.0313077 7.9170021.4128637 11.775 1.323-.3295245 1.1609636-.585038 2.3416699-.765 3.535-.0507317.3536929.0910832.7075837.3720244.9283651.2809412.2207815.6583271.2749116.99.142.3316729-.1329115.5672439-.4326722.6179756-.7863651 1.061-7.429 6.076-16.142 8.01-16.142 2.448 0 7 17.991 7 35 0 15.483-14.464 21-28 21z"/><path id="Shape"  d="m15 35c-2.8 0-5 3.075-5 7s2.2 7 5 7 5-3.075 5-7-2.2-7-5-7zm0 12c-1.626 0-3-2.29-3-5s1.374-5 3-5 3 2.29 3 5-1.374 5-3 5z"/><path id="Shape" d="m47 35c-2.8 0-5 3.075-5 7s2.2 7 5 7 5-3.075 5-7-2.2-7-5-7zm0 12c-1.626 0-3-2.29-3-5s1.374-5 3-5 3 2.29 3 5-1.374 5-3 5z"/><path id="Shape" d="m35.56 43.259c-.4093551.3703847-.441136 1.0024199-.071 1.412.3293187.3642594.5114504.8379445.511 1.329 0 1.1045695-.8954305 2-2 2s-2-.8954305-2-2c0-.5522847-.4477153-1-1-1s-1 .4477153-1 1c0 1.1045695-.8954305 2-2 2s-2-.8954305-2-2c-.0004504-.4910555.1816813-.9647406.511-1.329.370583-.4095191.3390191-1.0419169-.0705-1.4125-.4095192-.370583-1.0419169-.3390191-1.4125.0705-.8076255.8919868-1.1674828 2.1019334-.9785877 3.2903012.1888951 1.1883677.9061872 2.2270979 1.9505877 2.8246988v1.556c0 .5522847.4477153 1 1 1s1-.4477153 1-1v-1c1.1487161.0006041 2.2419626-.4939077 3-1.357.7580374.8630923 1.8512839 1.3576041 3 1.357v1c0 .5522847.4477153 1 1 1s1-.4477153 1-1v-1.556c1.0444005-.5976009 1.7616926-1.6363311 1.9505877-2.8246988.1888951-1.1883678-.1709622-2.3983144-.9785877-3.2903012-.3706697-.4090599-1.0026889-.4403923-1.412-.07z"/></g></g></svg>